<svg xmlns="http://www.w3.org/2000/svg" xmlns:xlink="http://www.w3.org/1999/xlink" width="321" zoomAndPan="magnify" viewBox="0 0 240.75 141.750002" height="188" preserveAspectRatio="xMidYMid meet" version="1.0"><path fill="#ffffff" d="M 53.253906 48.476562 C 53.003906 48.351562 52.878906 48.308594 52.75 48.269531 C 49.9375 47.679688 47.125 47.09375 44.351562 46.464844 C 43.640625 46.296875 43.34375 46.632812 43.007812 47.136719 C 37.382812 55.855469 34.234375 65.414062 33.519531 75.769531 C 33.183594 80.96875 33.476562 86.167969 34.484375 91.324219 C 37.507812 106.207031 45.023438 118.324219 57.074219 127.585938 C 66.523438 134.839844 77.355469 138.738281 89.242188 139.621094 C 95.539062 140.082031 101.753906 139.492188 107.882812 137.984375 C 119.726562 135.050781 129.636719 128.972656 137.90625 120.082031 C 138.203125 119.746094 138.539062 119.414062 138.832031 119.078125 C 154.199219 125.324219 169.609375 125.617188 185.019531 119.453125 C 201.902344 112.703125 213.320312 98.785156 217.773438 87.003906 C 216.640625 85.789062 211.054688 81.515625 210.339844 81.261719 C 205.261719 94.300781 196.484375 103.984375 183.761719 109.980469 C 169.945312 116.476562 154.578125 115.511719 144.667969 111.277344 C 144.667969 111.195312 144.667969 111.152344 144.667969 111.070312 C 144.835938 110.777344 145.003906 110.484375 145.214844 110.148438 C 148.195312 105.03125 150.378906 99.625 151.804688 93.921875 C 151.972656 93.292969 151.847656 92.957031 151.34375 92.582031 C 149.035156 90.777344 146.765625 88.976562 144.5 87.171875 C 144.332031 87.046875 144.121094 86.964844 143.785156 86.796875 C 142.652344 94.214844 140.175781 100.964844 136.1875 107.171875 C 109.144531 90.90625 105.617188 56.277344 119.9375 36.320312 C 126.613281 40.34375 132.027344 45.753906 136.3125 52.210938 C 137.402344 51.664062 143.113281 47.21875 143.574219 46.550781 C 141.265625 43.027344 138.539062 39.800781 135.515625 36.824219 C 132.492188 33.847656 129.171875 31.289062 125.519531 28.941406 C 131.019531 23.15625 137.363281 18.878906 144.667969 16.15625 C 154.871094 12.382812 165.285156 11.796875 175.78125 14.730469 C 191.109375 19.007812 202.070312 28.605469 208.996094 42.984375 C 211.515625 41.058594 213.953125 39.214844 216.386719 37.285156 C 211.433594 27.390625 204.421875 19.46875 195.222656 13.515625 C 183.761719 6.050781 171.164062 2.78125 157.515625 3.957031 C 141.308594 5.339844 127.871094 12.425781 116.996094 24.539062 C 116.617188 24.414062 116.28125 24.246094 115.90625 24.121094 C 110.066406 21.773438 104.019531 20.390625 97.808594 19.929688 C 93.816406 19.636719 89.828125 19.761719 85.882812 20.265625 C 80.464844 20.933594 75.257812 22.359375 70.21875 24.414062 C 69.335938 24.792969 69.335938 24.792969 69.335938 25.714844 C 69.421875 28.355469 69.503906 31.039062 69.589844 33.679688 C 69.589844 33.972656 69.671875 34.265625 69.714844 34.769531 C 76.222656 31.414062 83.066406 29.613281 90.25 29.027344 C 96.128906 28.566406 108.640625 30.410156 111.242188 32.378906 C 110.949219 32.925781 110.613281 33.46875 110.320312 34.015625 C 105.742188 41.980469 103.140625 50.492188 102.550781 59.628906 C 102.300781 63.488281 102.339844 67.386719 102.84375 71.242188 C 103.726562 78.160156 105.742188 84.742188 108.890625 90.945312 C 113.722656 100.464844 120.648438 108.136719 129.59375 114.046875 C 129.84375 114.214844 130.054688 114.382812 130.308594 114.589844 C 114.5625 131.652344 86.847656 136.390625 65.222656 122.09375 C 54.429688 114.96875 47.292969 105.03125 44.144531 92.496094 C 40.195312 76.441406 43.472656 61.808594 53.253906 48.476562 Z M 42.335938 29.988281 C 50.105469 35.523438 57.707031 40.890625 65.472656 46.382812 C 65.304688 45.332031 54.054688 21.480469 53.421875 20.726562 C 49.769531 23.785156 46.117188 26.847656 42.335938 29.988281 Z M 29.488281 40.722656 C 29.992188 40.890625 30.246094 40.972656 30.453125 41.015625 C 41.203125 43.28125 51.996094 45.585938 62.746094 47.847656 C 62.785156 47.847656 62.828125 47.808594 62.828125 47.808594 C 62.871094 47.765625 62.871094 47.765625 62.914062 47.640625 C 55.4375 42.316406 47.921875 36.992188 40.40625 31.582031 C 36.792969 34.644531 33.226562 37.621094 29.488281 40.722656 Z M 66.480469 10.242188 C 66.398438 10.203125 66.3125 10.117188 66.230469 10.078125 C 62.617188 13.054688 59.089844 16.03125 55.480469 19.046875 C 56.363281 20.933594 57.203125 22.695312 58.042969 24.457031 C 60.980469 30.660156 63.921875 36.90625 66.859375 43.113281 C 67.027344 43.449219 67.070312 43.867188 67.617188 44.035156 C 67.195312 32.714844 66.859375 21.480469 66.480469 10.242188 Z M 63.164062 50.617188 C 62.996094 50.492188 62.914062 50.40625 62.828125 50.363281 C 60.769531 49.945312 58.714844 49.566406 56.65625 49.148438 C 56.152344 49.066406 55.941406 49.316406 55.734375 49.652344 C 54.726562 51.078125 53.632812 52.460938 52.710938 53.929688 C 48.046875 61.433594 45.78125 69.648438 45.320312 78.410156 C 45.320312 78.578125 45.359375 78.789062 45.359375 78.957031 C 45.445312 79 45.488281 79 45.570312 79.039062 C 49.015625 68.015625 54.765625 58.496094 63.164062 50.617188 Z M 101.164062 32.546875 C 101.164062 32.464844 101.125 32.335938 101.125 32.253906 C 99.863281 32.128906 98.648438 31.917969 97.386719 31.835938 C 92.097656 31.542969 86.847656 31.792969 81.683594 33.050781 C 77.863281 33.972656 74.207031 35.355469 70.722656 37.160156 C 70.09375 37.496094 69.800781 37.871094 69.839844 38.625 C 69.925781 40.261719 69.925781 41.894531 69.96875 43.53125 C 69.96875 43.910156 70.007812 44.285156 70.050781 44.871094 C 79.371094 37.914062 89.785156 33.972656 101.164062 32.546875 Z M 189.890625 102.851562 C 189.933594 102.894531 190.015625 102.976562 190.058594 103.019531 C 190.394531 102.8125 190.730469 102.601562 191.066406 102.347656 C 196.652344 98.324219 201.0625 93.253906 204.546875 87.339844 C 205.890625 85.035156 206.980469 82.644531 207.90625 80.128906 C 208.15625 79.417969 208.15625 78.871094 207.527344 78.285156 C 206.308594 77.113281 205.175781 75.894531 204.042969 74.679688 C 203.875 74.511719 203.621094 74.34375 203.328125 74.09375 C 203.246094 74.46875 203.160156 74.722656 203.117188 74.972656 C 202.109375 80.339844 200.304688 85.414062 197.910156 90.277344 C 195.980469 94.214844 193.628906 97.863281 190.941406 101.34375 C 190.5625 101.847656 190.226562 102.347656 189.890625 102.851562 Z M 65.097656 7.894531 C 63.753906 7.140625 53.464844 3.453125 52.542969 3.410156 C 53.296875 7.730469 54.011719 11.964844 54.808594 16.492188 C 58.335938 13.554688 61.652344 10.789062 65.097656 7.894531 Z M 38.894531 14.476562 C 39.3125 16.910156 39.648438 19.046875 40.027344 21.1875 C 40.449219 23.324219 40.65625 25.503906 41.246094 27.769531 C 44.730469 24.875 48.046875 22.066406 51.574219 19.132812 C 47.292969 17.582031 43.21875 16.070312 38.894531 14.476562 Z M 26.214844 23.492188 C 27.472656 24.246094 37.886719 27.9375 38.769531 27.976562 C 38.011719 23.703125 37.296875 19.425781 36.5 14.898438 C 32.972656 17.832031 29.65625 20.640625 26.214844 23.492188 Z M 52.164062 16.785156 C 52.246094 16.699219 52.332031 16.660156 52.375 16.574219 C 51.617188 12.296875 50.902344 8.0625 50.148438 3.746094 C 49.140625 4.207031 40.40625 11.542969 39.902344 12.296875 C 44.015625 13.808594 48.089844 15.316406 52.164062 16.785156 Z M 25.246094 25.839844 C 26.046875 30.367188 26.800781 34.644531 27.558594 39.171875 C 28.566406 38.332031 29.40625 37.660156 30.246094 36.949219 C 31.085938 36.238281 31.964844 35.523438 32.804688 34.8125 C 33.644531 34.097656 34.484375 33.425781 35.28125 32.714844 C 36.121094 32.003906 37.046875 31.375 37.84375 30.410156 C 33.644531 28.898438 29.613281 27.433594 25.246094 25.839844 Z M 25.246094 25.839844 " fill-opacity="1" fill-rule="nonzero"/><path fill="#ffffff" d="M 53.253906 48.476562 C 43.472656 61.808594 40.238281 76.441406 44.226562 92.457031 C 47.375 105.03125 54.515625 114.925781 65.304688 122.054688 C 86.929688 136.347656 114.644531 131.613281 130.390625 114.550781 C 130.140625 114.382812 129.929688 114.171875 129.675781 114.003906 C 120.777344 108.09375 113.847656 100.421875 108.976562 90.90625 C 105.828125 84.699219 103.8125 78.117188 102.929688 71.199219 C 102.425781 67.34375 102.382812 63.445312 102.636719 59.585938 C 103.222656 50.449219 105.867188 41.894531 110.402344 33.972656 C 110.699219 33.425781 111.035156 32.882812 111.328125 32.335938 C 108.683594 30.367188 96.210938 28.523438 90.332031 28.984375 C 83.152344 29.570312 76.308594 31.332031 69.800781 34.726562 C 69.714844 34.265625 69.671875 33.929688 69.671875 33.636719 C 69.589844 30.996094 69.503906 28.3125 69.421875 25.671875 C 69.378906 24.75 69.421875 24.75 70.304688 24.371094 C 75.34375 22.277344 80.546875 20.894531 85.964844 20.222656 C 89.953125 19.71875 93.902344 19.59375 97.890625 19.886719 C 104.148438 20.347656 110.195312 21.730469 115.988281 24.078125 C 116.324219 24.203125 116.703125 24.371094 117.082031 24.496094 C 127.957031 12.382812 141.394531 5.339844 157.601562 3.914062 C 171.246094 2.738281 183.84375 6.050781 195.308594 13.472656 C 204.460938 19.425781 211.472656 27.347656 216.472656 37.242188 C 214.035156 39.171875 211.601562 41.015625 209.082031 42.945312 C 202.152344 28.566406 191.191406 18.964844 175.867188 14.6875 C 165.367188 11.753906 154.957031 12.339844 144.75 16.113281 C 137.445312 18.839844 131.105469 23.074219 125.605469 28.898438 C 129.257812 31.246094 132.574219 33.804688 135.597656 36.78125 C 138.621094 39.757812 141.351562 42.984375 143.660156 46.507812 C 143.199219 47.179688 137.488281 51.621094 136.394531 52.167969 C 132.113281 45.667969 126.695312 40.304688 120.019531 36.277344 C 105.742188 56.234375 109.226562 90.863281 136.269531 107.128906 C 140.300781 100.925781 142.738281 94.132812 143.871094 86.753906 C 144.164062 86.921875 144.414062 87.003906 144.582031 87.132812 C 146.851562 88.933594 149.117188 90.738281 151.429688 92.539062 C 151.890625 92.917969 152.015625 93.253906 151.890625 93.882812 C 150.460938 99.625 148.277344 105.03125 145.296875 110.105469 C 145.128906 110.398438 144.960938 110.691406 144.75 111.027344 C 144.710938 111.070312 144.75 111.152344 144.75 111.238281 C 154.660156 115.472656 170.070312 116.4375 183.84375 109.9375 C 196.566406 103.941406 205.34375 94.257812 210.425781 81.21875 C 211.136719 81.472656 216.722656 85.746094 217.855469 86.964844 C 213.40625 98.746094 201.984375 112.664062 185.105469 119.414062 C 169.695312 125.574219 154.285156 125.28125 138.914062 119.035156 C 138.578125 119.371094 138.285156 119.707031 137.992188 120.042969 C 129.71875 128.886719 119.808594 135.007812 107.96875 137.941406 C 101.835938 139.453125 95.625 140.039062 89.324219 139.578125 C 77.441406 138.738281 66.648438 134.796875 57.160156 127.546875 C 45.109375 118.324219 37.550781 106.207031 34.570312 91.28125 C 33.519531 86.125 33.226562 80.96875 33.605469 75.726562 C 34.277344 65.375 37.464844 55.855469 43.09375 47.09375 C 43.429688 46.589844 43.679688 46.257812 44.4375 46.425781 C 47.25 47.054688 50.023438 47.640625 52.835938 48.226562 C 52.878906 48.269531 53.003906 48.351562 53.253906 48.476562 Z M 53.253906 48.476562 " fill-opacity="1" fill-rule="nonzero"/><path fill="#f6b9d5" d="M 42.335938 29.988281 C 46.160156 26.804688 49.769531 23.785156 53.421875 20.765625 C 54.054688 21.480469 65.304688 45.332031 65.472656 46.425781 C 57.707031 40.933594 50.105469 35.523438 42.335938 29.988281 Z M 42.335938 29.988281 " fill-opacity="1" fill-rule="nonzero"/><path fill="#f6b9d5" d="M 29.488281 40.722656 C 33.226562 37.621094 36.753906 34.644531 40.40625 31.582031 C 47.921875 36.949219 55.4375 42.273438 62.914062 47.640625 C 62.871094 47.765625 62.828125 47.808594 62.828125 47.808594 C 62.785156 47.847656 62.785156 47.847656 62.746094 47.847656 C 51.996094 45.585938 41.203125 43.320312 30.453125 41.015625 C 30.246094 40.972656 30.035156 40.890625 29.488281 40.722656 Z M 29.488281 40.722656 " fill-opacity="1" fill-rule="nonzero"/><path fill="#f6b9d5" d="M 66.480469 10.242188 C 66.859375 21.480469 67.195312 32.714844 67.574219 44.035156 C 67.027344 43.824219 66.984375 43.40625 66.816406 43.113281 C 63.878906 36.90625 60.9375 30.660156 58 24.457031 C 57.160156 22.695312 56.320312 20.933594 55.4375 19.046875 C 59.050781 16.070312 62.617188 13.054688 66.1875 10.078125 C 66.3125 10.160156 66.398438 10.203125 66.480469 10.242188 Z M 66.480469 10.242188 " fill-opacity="1" fill-rule="nonzero"/><path fill="#f6b9d5" d="M 63.164062 50.617188 C 54.726562 58.496094 49.015625 68.054688 45.570312 79 C 45.488281 78.957031 45.445312 78.957031 45.359375 78.914062 C 45.320312 78.746094 45.277344 78.539062 45.320312 78.371094 C 45.78125 69.609375 48.046875 61.390625 52.710938 53.886719 C 53.632812 52.417969 54.726562 51.035156 55.734375 49.609375 C 55.941406 49.273438 56.195312 49.023438 56.65625 49.105469 C 58.714844 49.527344 60.769531 49.945312 62.828125 50.324219 C 62.914062 50.363281 62.996094 50.492188 63.164062 50.617188 Z M 63.164062 50.617188 " fill-opacity="1" fill-rule="nonzero"/><path fill="#f6b9d5" d="M 101.164062 32.546875 C 89.785156 34.015625 79.414062 37.914062 70.050781 44.871094 C 70.007812 44.285156 70.007812 43.910156 69.96875 43.53125 C 69.925781 41.894531 69.925781 40.261719 69.839844 38.625 C 69.800781 37.871094 70.09375 37.496094 70.722656 37.160156 C 74.207031 35.355469 77.863281 33.972656 81.683594 33.050781 C 86.847656 31.792969 92.097656 31.542969 97.386719 31.835938 C 98.648438 31.917969 99.863281 32.085938 101.125 32.253906 C 101.125 32.335938 101.125 32.464844 101.164062 32.546875 Z M 101.164062 32.546875 " fill-opacity="1" fill-rule="nonzero"/><path fill="#f6b9d5" d="M 189.890625 102.851562 C 190.226562 102.347656 190.5625 101.847656 190.941406 101.34375 C 193.585938 97.863281 195.9375 94.214844 197.910156 90.277344 C 200.304688 85.414062 202.109375 80.296875 203.117188 74.972656 C 203.160156 74.722656 203.246094 74.46875 203.328125 74.09375 C 203.621094 74.34375 203.875 74.46875 204.042969 74.679688 C 205.21875 75.894531 206.351562 77.152344 207.527344 78.285156 C 208.15625 78.871094 208.15625 79.417969 207.90625 80.128906 C 206.980469 82.644531 205.890625 85.035156 204.546875 87.339844 C 201.0625 93.253906 196.652344 98.324219 191.066406 102.347656 C 190.730469 102.601562 190.394531 102.8125 190.058594 103.019531 C 189.976562 102.9375 189.933594 102.894531 189.890625 102.851562 Z M 189.890625 102.851562 " fill-opacity="1" fill-rule="nonzero"/><path fill="#f6b9d5" d="M 65.097656 7.894531 C 61.695312 10.789062 58.335938 13.554688 54.808594 16.492188 C 54.011719 11.964844 53.296875 7.6875 52.542969 3.410156 C 53.464844 3.453125 63.753906 7.140625 65.097656 7.894531 Z M 65.097656 7.894531 " fill-opacity="1" fill-rule="nonzero"/><path fill="#f6b9d5" d="M 38.894531 14.476562 C 43.261719 16.070312 47.292969 17.582031 51.617188 19.132812 C 48.089844 22.066406 44.730469 24.875 41.289062 27.769531 C 40.699219 25.503906 40.449219 23.324219 40.070312 21.1875 C 39.609375 19.046875 39.3125 16.910156 38.894531 14.476562 Z M 38.894531 14.476562 " fill-opacity="1" fill-rule="nonzero"/><path fill="#f6b9d5" d="M 26.214844 23.492188 C 29.65625 20.640625 32.972656 17.832031 36.5 14.898438 C 37.296875 19.425781 38.011719 23.703125 38.769531 27.976562 C 37.929688 27.976562 27.515625 24.246094 26.214844 23.492188 Z M 26.214844 23.492188 " fill-opacity="1" fill-rule="nonzero"/><path fill="#f6b9d5" d="M 52.164062 16.785156 C 48.089844 15.273438 44.015625 13.808594 39.902344 12.296875 C 40.40625 11.542969 49.140625 4.207031 50.148438 3.746094 C 50.902344 8.0625 51.660156 12.296875 52.375 16.574219 C 52.332031 16.660156 52.246094 16.742188 52.164062 16.785156 Z M 52.164062 16.785156 " fill-opacity="1" fill-rule="nonzero"/><path fill="#f6b9d5" d="M 25.246094 25.839844 C 29.574219 27.433594 33.644531 28.898438 37.886719 30.449219 C 37.089844 31.414062 36.164062 32.003906 35.324219 32.757812 C 34.527344 33.46875 33.644531 34.140625 32.847656 34.851562 C 32.007812 35.566406 31.125 36.277344 30.285156 36.992188 C 29.445312 37.660156 28.648438 38.375 27.597656 39.214844 C 26.800781 34.644531 26.046875 30.367188 25.246094 25.839844 Z M 25.246094 25.839844 " fill-opacity="1" fill-rule="nonzero"/></svg>